<svg width="1024" height="1024" viewBox="0 0 1024 1024" fill="none" xmlns="http://www.w3.org/2000/svg">
  <rect x="64" y="64" width="896" height="896" rx="240" fill="#0B1F2A"/>
  <rect x="112" y="112" width="800" height="800" rx="208" fill="#123649"/>
  <path d="M512 248C463 321 354 432 354 570C354 671 435 752 536 752C637 752 718 671 718 570C718 438 612 323 565 256C552 237 525 234 512 248Z" fill="#2DD4BF"/>
  <circle cx="430" cy="408" r="46" fill="#CFFAFE"/>
  <circle cx="630" cy="430" r="40" fill="#CFFAFE"/>
  <circle cx="590" cy="622" r="36" fill="#CFFAFE"/>
  <path d="M472 428L590 445" stroke="#7DD3FC" stroke-width="30" stroke-linecap="round"/>
  <path d="M606 469L594 586" stroke="#7DD3FC" stroke-width="30" stroke-linecap="round"/>
  <path d="M468 445L560 585" stroke="#7DD3FC" stroke-width="30" stroke-linecap="round"/>
  <circle cx="430" cy="408" r="22" fill="#0E7490"/>
  <circle cx="630" cy="430" r="20" fill="#0E7490"/>
  <circle cx="590" cy="622" r="18" fill="#0E7490"/>
</svg>
